<?xml version="1.0" encoding="UTF-8" standalone="no"?>
<!DOCTYPE svg PUBLIC "-//W3C//DTD SVG 1.1//EN" "http://www.w3.org/Graphics/SVG/1.1/DTD/svg11.dtd">
<svg width="100%" height="100%" viewBox="0 0 800 800" version="1.1" xmlns="http://www.w3.org/2000/svg" xmlns:xlink="http://www.w3.org/1999/xlink" xml:space="preserve" xmlns:serif="http://www.serif.com/" style="fill-rule:evenodd;clip-rule:evenodd;stroke-linejoin:round;stroke-miterlimit:2;">
    <g transform="matrix(1.31164,0,0,1.52051,0,0)">
        <rect x="0" y="0" width="609.923" height="526.139" style="fill:rgb(244,63,94);"/>
    </g>
    <g transform="matrix(0.705961,0,0,0.705961,117.616,117.616)">
        <path d="M176.481,53.333C156.28,53.333 137.812,64.747 128.778,82.815L56.149,228.074C54.297,231.777 53.333,235.86 53.333,240L53.333,693.333C53.333,722.789 77.212,746.667 106.667,746.667L693.333,746.667C722.789,746.667 746.667,722.789 746.667,693.333L746.667,240C746.667,235.86 745.701,231.777 743.851,228.074L671.221,82.817C662.187,64.748 643.723,53.335 623.52,53.335L400,53.334L176.481,53.333ZM176.481,106.667L373.333,106.667L373.333,213.333L123.148,213.333L176.481,106.667ZM426.667,213.333L426.667,106.668L623.52,106.668L676.853,213.333L426.667,213.333ZM106.667,266.667L693.333,266.667L693.333,693.333L106.667,693.333L106.667,266.667ZM293.333,373.333C278.606,373.333 266.667,385.273 266.667,400C266.667,414.727 278.606,426.667 293.333,426.667L506.667,426.667C521.394,426.667 533.333,414.727 533.333,400C533.333,385.273 521.394,373.333 506.667,373.333L293.333,373.333Z" style="fill:white;"/>
    </g>
</svg>
